<?xml version="1.0" encoding="UTF-8"?>
<svg version="1.1" xmlns="http://www.w3.org/2000/svg" width="1024" height="1024">
<path d="M0 0 C337.92 0 675.84 0 1024 0 C1024 337.92 1024 675.84 1024 1024 C686.08 1024 348.16 1024 0 1024 C0 686.08 0 348.16 0 0 Z " fill="#000000" transform="translate(0,0)"/>
<path d="M0 0 C46.7465625 -0.0309375 46.7465625 -0.0309375 94.4375 -0.0625 C104.2955249 -0.071604 114.1535498 -0.08070801 124.31030273 -0.09008789 C136.30285645 -0.09460449 136.30285645 -0.09460449 141.90834045 -0.09544373 C145.84246885 -0.09637936 149.7765839 -0.10014255 153.71070862 -0.10557556 C158.71895035 -0.112401 163.72717249 -0.11449743 168.73541844 -0.11307228 C170.57967587 -0.11337057 172.42393395 -0.11537328 174.2681874 -0.11921513 C176.74700846 -0.12414162 179.22575199 -0.12300749 181.70457458 -0.12025452 C182.80297716 -0.12462351 182.80297716 -0.12462351 183.92356968 -0.12908077 C188.88587517 -0.11412483 188.88587517 -0.11412483 190 1 C190.09429342 3.17805719 190.11742538 5.3592128 190.11352539 7.53930664 C190.11367142 8.22220261 190.11381744 8.90509857 190.1139679 9.60868835 C190.11326876 11.87587614 190.1054764 14.14298274 190.09765625 16.41015625 C190.09579207 17.97814387 190.09436817 19.54613207 190.09336853 21.11412048 C190.08954334 25.24876503 190.07971306 29.38337466 190.06866455 33.51800537 C190.05845044 37.73400398 190.05387091 41.95000822 190.04882812 46.16601562 C190.03809079 54.44402647 190.02101436 62.7220089 190 71 C190.79957626 70.99777939 191.59915253 70.99555878 192.42295837 70.99327087 C199.94259639 70.97326908 207.46222159 70.95802645 214.98187923 70.94818783 C218.84820118 70.94295974 222.71450121 70.93586346 226.58081055 70.92456055 C230.30903401 70.913729 234.03723634 70.9077226 237.76547432 70.90512276 C239.19089656 70.90326899 240.61631759 70.89964929 242.04173088 70.89426994 C244.03163408 70.88705607 246.02155834 70.88659192 248.01147461 70.88647461 C249.14620712 70.884254 250.28093964 70.88203339 251.45005798 70.87974548 C254 71 254 71 255 72 C255.09429342 74.17805719 255.11742538 76.3592128 255.11352539 78.53930664 C255.11367142 79.22220261 255.11381744 79.90509857 255.1139679 80.60868835 C255.11326876 82.87587614 255.1054764 85.14298274 255.09765625 87.41015625 C255.09579207 88.97814387 255.09436817 90.54613207 255.09336853 92.11412048 C255.08954334 96.24876503 255.07971306 100.38337466 255.06866455 104.51800537 C255.05665582 109.47475717 255.05204819 114.43152061 255.04621124 119.38828278 C255.03650129 126.92554616 255.01734477 134.46273288 255 142 C233.55 142 212.1 142 190 142 C190.01160156 146.96933594 190.02320313 151.93867188 190.03515625 157.05859375 C190.04026314 160.19856901 190.04507692 163.33853917 190.04882812 166.47851562 C190.05481606 171.46721453 190.06191503 176.45589517 190.07543945 181.44458008 C190.08627008 185.46457686 190.09227721 189.48455405 190.09487724 193.50456429 C190.09673118 195.04162975 190.10035119 196.57869409 190.10573006 198.11575127 C190.11294284 200.26135487 190.11399084 202.40687655 190.11352539 204.55249023 C190.115746 205.77604721 190.11796661 206.99960419 190.12025452 208.26023865 C190 211 190 211 189 212 C187.40577964 212.09597204 185.8072955 212.12187924 184.21018982 212.12025452 C182.65896376 212.12232076 182.65896376 212.12232076 181.0763998 212.12442875 C179.92768933 212.12083064 178.77897886 212.11723253 177.59545898 212.11352539 C175.76647993 212.11370619 175.76647993 212.11370619 173.9005518 212.11389065 C170.59181125 212.1132656 167.28313274 212.1083066 163.97440338 212.10128021 C160.87360226 212.09560002 157.77280278 212.0953179 154.67199707 212.09460449 C145.59382659 212.08934985 136.51566285 212.0753888 127.4375 212.0625 C107.163125 212.041875 86.88875 212.02125 66 212 C66 253.91 66 295.82 66 339 C44.22 339 22.44 339 0 339 C0 227.13 0 115.26 0 0 Z " fill="#FBFBFB" transform="translate(234,349)"/>
<path d="M0 0 C67.65 0 135.3 0 205 0 C205 23.76 205 47.52 205 72 C137.68 72 70.36 72 1 72 C1 137.34 1 202.68 1 270 C68.65 270 136.3 270 206 270 C206 292.77 206 315.54 206 339 C204.22782956 340.77217044 201.86569355 340.1225187 199.50543016 340.12908131 C198.31333282 340.12471205 198.31333282 340.12471205 197.09715271 340.12025452 C196.25917005 340.12110894 195.42118739 340.12196337 194.55781132 340.12284368 C191.72789141 340.12450106 188.89802976 340.11897293 186.06811523 340.11352539 C184.048289 340.11324355 182.02846265 340.11340119 180.00863647 340.1139679 C174.50679614 340.11425599 169.00497741 340.10835741 163.50314212 340.10139394 C157.76023895 340.0951623 152.01733535 340.09455675 146.27442932 340.09336853 C135.39113107 340.09025465 124.50784281 340.08204051 113.62454897 340.07201904 C101.23782204 340.06085965 88.85109464 340.05534789 76.46436393 340.05032361 C50.9762358 340.03985794 25.48812137 340.02151176 0 340 C-0.33 317.23 -0.66 294.46 -1 271 C-21.35917948 270.71059944 -21.35917948 270.71059944 -41.71850586 270.43188477 C-44.2589577 270.39378154 -46.79940411 270.35531411 -49.33984375 270.31640625 C-50.00407852 270.30826401 -50.66831329 270.30012177 -51.35267639 270.29173279 C-53.30020243 270.26748523 -55.24764171 270.23654841 -57.19506836 270.20532227 C-58.84387245 270.18200584 -58.84387245 270.18200584 -60.52598572 270.15821838 C-63 270 -63 270 -64 269 C-64.0977625 266.4454283 -64.12995146 263.91791539 -64.12025452 261.36289978 C-64.12110894 260.55350199 -64.12196337 259.7441042 -64.12284368 258.9101792 C-64.12450096 256.17699528 -64.11897309 253.44387169 -64.11352539 250.71069336 C-64.11324355 248.75983176 -64.1134012 246.80897006 -64.1139679 244.85810852 C-64.11425598 239.54427841 -64.10835754 234.23047066 -64.10139394 228.91664577 C-64.09516216 223.36993315 -64.09455674 217.82322009 -64.09336853 212.27650452 C-64.09025469 201.76507375 -64.0820406 191.25365334 -64.07201904 180.74222714 C-64.06085953 168.77870865 -64.05534786 156.81518968 -64.05032361 144.85166728 C-64.03985803 120.23443779 -64.0215119 95.61722249 -64 71 C-42.88 71 -21.76 71 0 71 C0 47.57 0 24.14 0 0 Z " fill="#FCFCFC" transform="translate(586,349)"/>
<path d="M0 0 C67.32 0 134.64 0 204 0 C204 22.44 204 44.88 204 68 C136.68 68 69.36 68 0 68 C0 45.56 0 23.12 0 0 Z " fill="#FDFDFD" transform="translate(587,620)"/>
<path d="M0 0 C20.79 0 41.58 0 63 0 C63 65.01 63 130.02 63 197 C42.21 197 21.42 197 0 197 C0 131.99 0 66.98 0 0 Z " fill="#FEFEFE" transform="translate(523,421)"/>
<path d="M0 0 C30.44852328 -0.04016367 30.44852328 -0.04016367 45.43610096 -0.05025387 C53.55758558 -0.05580571 61.67905999 -0.06286549 69.80053711 -0.07543945 C76.2283218 -0.08538646 82.6560988 -0.09185347 89.08389097 -0.09408849 C92.48939278 -0.09539557 95.89487258 -0.09848125 99.30036736 -0.10573006 C103.09601041 -0.11293606 106.89160712 -0.11399113 110.68725586 -0.11352539 C112.3930481 -0.1189183 112.3930481 -0.1189183 114.13330078 -0.12442017 C115.67515297 -0.12235817 115.67515297 -0.12235817 117.24815369 -0.12025452 C118.14690185 -0.12117631 119.04565001 -0.1220981 119.97163296 -0.12304783 C122 0 122 0 123 1 C123.09417773 3.08619022 123.11742878 5.17560477 123.11352539 7.26391602 C123.11364593 7.92815299 123.11376646 8.59238997 123.11389065 9.27675533 C123.11314176 11.43583921 123.10551468 13.59483773 123.09765625 15.75390625 C123.09664917 17.06999878 123.09564209 18.38609131 123.09460449 19.74206543 C123.08935248 24.68221909 123.07539139 29.62236037 123.0625 34.5625 C123.041875 45.596875 123.02125 56.63125 123 68 C82.41 68 41.82 68 0 68 C0 45.56 0 23.12 0 0 Z " fill="#000000" transform="translate(300,422)"/>
<path d="M0 0 C0.33 0 0.66 0 1 0 C1 23.1 1 46.2 1 70 C22.01746879 69.96038712 22.01746879 69.96038712 43.03491211 69.90991211 C45.65738891 69.90699325 48.27986616 69.90444462 50.90234375 69.90234375 C51.93096275 69.89842369 51.93096275 69.89842369 52.98036194 69.89442444 C54.99072139 69.88714366 57.00110198 69.8866616 59.01147461 69.88647461 C60.14620712 69.884254 61.28093964 69.88203339 62.45005798 69.87974548 C65 70 65 70 66 71 C66.09429342 73.17805719 66.11742538 75.3592128 66.11352539 77.53930664 C66.11367142 78.22220261 66.11381744 78.90509857 66.1139679 79.60868835 C66.11326876 81.87587614 66.1054764 84.14298274 66.09765625 86.41015625 C66.09579207 87.97814387 66.09436817 89.54613207 66.09336853 91.11412048 C66.08954334 95.24876503 66.07971306 99.38337466 66.06866455 103.51800537 C66.05665582 108.47475717 66.05204819 113.43152061 66.04621124 118.38828278 C66.03650129 125.92554616 66.01734477 133.46273288 66 141 C44.55 141 23.1 141 1 141 C1 163.77 1 186.54 1 210 C0.67 210 0.34 210 0 210 C0 187.56 0 165.12 0 142 C-40.92 142 -81.84 142 -124 142 C-124.020625 130.305625 -124.04125 118.61125 -124.0625 106.5625 C-124.071604 102.86490479 -124.08070801 99.16730957 -124.09008789 95.35766602 C-124.09460449 90.85534668 -124.09460449 90.85534668 -124.09544373 88.75010681 C-124.09698306 87.27431436 -124.10050776 85.7985232 -124.10557556 84.32273865 C-124.1128548 82.09217125 -124.11390736 79.86168095 -124.11352539 77.63110352 C-124.115746 76.37201675 -124.11796661 75.11292999 -124.12025452 73.81568909 C-124 71 -124 71 -123 70 C-121.40577964 69.90402796 -119.8072955 69.87812076 -118.21018982 69.87974548 C-117.17387421 69.87837082 -116.13755859 69.87699615 -115.06983948 69.87557983 C-113.35002113 69.88097275 -113.35002113 69.88097275 -111.59545898 69.88647461 C-110.39562378 69.88632858 -109.19578857 69.88618256 -107.95959473 69.8860321 C-104.66014809 69.88661106 -101.36076336 69.89164022 -98.0613277 69.89860606 C-94.61665703 69.90484027 -91.17198562 69.90544345 -87.72731018 69.90663147 C-81.2001727 69.90974459 -74.67305189 69.91795771 -68.14592177 69.92798096 C-59.98856042 69.9402368 -51.83119638 69.94572471 -43.67382812 69.95117188 C-29.11587242 69.96092314 -14.55795311 69.9809534 0 70 C0 46.9 0 23.8 0 0 Z M-123 72 C-123 94.44 -123 116.88 -123 140 C-82.41 140 -41.82 140 0 140 C0.020625 128.965625 0.04125 117.93125 0.0625 106.5625 C0.071604 103.07373291 0.08070801 99.58496582 0.09008789 95.99047852 C0.09300673 93.24495482 0.09555536 90.49943069 0.09765625 87.75390625 C0.10026962 87.0358934 0.102883 86.31788055 0.10557556 85.57810974 C0.11285571 83.47335481 0.11390733 81.36868158 0.11352539 79.26391602 C0.115746 78.07588882 0.11796661 76.88786163 0.12025452 75.66383362 C0.30362595 73.07879307 0.30362595 73.07879307 -1 72 C-2.58154848 71.90405775 -4.16739125 71.8781204 -5.75184631 71.87974548 C-6.77974777 71.87837082 -7.80764923 71.87699615 -8.86669922 71.87557983 C-10.57249146 71.88097275 -10.57249146 71.88097275 -12.31274414 71.88647461 C-13.50282578 71.88632858 -14.69290741 71.88618256 -15.91905212 71.8860321 C-19.19163274 71.88661106 -22.46417107 71.89164019 -25.73674321 71.89860606 C-29.15338665 71.90484033 -32.57003083 71.90544346 -35.98667908 71.90663147 C-42.46069267 71.90974457 -48.93468946 71.91795767 -55.40869564 71.92798096 C-63.49967408 71.94023686 -71.59065523 71.94572472 -79.68164062 71.95117188 C-94.12110686 71.9609231 -108.56053639 71.98095337 -123 72 Z " fill="#FDFDFD" transform="translate(423,350)"/>
<path d="M0 0 C67.65 0 135.3 0 205 0 C205 0.33 205 0.66 205 1 C137.68 1 70.36 1 1 1 C1 89.77 1 178.54 1 270 C68.65 270 136.3 270 206 270 C206 292.77 206 315.54 206 339 C204.22782956 340.77217044 201.86569355 340.1225187 199.50543016 340.12908131 C198.31333282 340.12471205 198.31333282 340.12471205 197.09715271 340.12025452 C196.25917005 340.12110894 195.42118739 340.12196337 194.55781132 340.12284368 C191.72789141 340.12450106 188.89802976 340.11897293 186.06811523 340.11352539 C184.048289 340.11324355 182.02846265 340.11340119 180.00863647 340.1139679 C174.50679614 340.11425599 169.00497741 340.10835741 163.50314212 340.10139394 C157.76023895 340.0951623 152.01733535 340.09455675 146.27442932 340.09336853 C135.39113107 340.09025465 124.50784281 340.08204051 113.62454897 340.07201904 C101.23782204 340.06085965 88.85109464 340.05534789 76.46436393 340.05032361 C50.9762358 340.03985794 25.48812137 340.02151176 0 340 C-0.33 317.23 -0.66 294.46 -1 271 C-21.35917948 270.71059944 -21.35917948 270.71059944 -41.71850586 270.43188477 C-44.2589577 270.39378154 -46.79940411 270.35531411 -49.33984375 270.31640625 C-50.00407852 270.30826401 -50.66831329 270.30012177 -51.35267639 270.29173279 C-53.30020243 270.26748523 -55.24764171 270.23654841 -57.19506836 270.20532227 C-58.84387245 270.18200584 -58.84387245 270.18200584 -60.52598572 270.15821838 C-63 270 -63 270 -64 269 C-64.0977625 266.4454283 -64.12995146 263.91791539 -64.12025452 261.36289978 C-64.12110894 260.55350199 -64.12196337 259.7441042 -64.12284368 258.9101792 C-64.12450096 256.17699528 -64.11897309 253.44387169 -64.11352539 250.71069336 C-64.11324355 248.75983176 -64.1134012 246.80897006 -64.1139679 244.85810852 C-64.11425598 239.54427841 -64.10835754 234.23047066 -64.10139394 228.91664577 C-64.09516216 223.36993315 -64.09455674 217.82322009 -64.09336853 212.27650452 C-64.09025469 201.76507375 -64.0820406 191.25365334 -64.07201904 180.74222714 C-64.06085953 168.77870865 -64.05534786 156.81518968 -64.05032361 144.85166728 C-64.03985803 120.23443779 -64.0215119 95.61722249 -64 71 C-42.88 71 -21.76 71 0 71 C0 47.57 0 24.14 0 0 Z M-63 72 C-63 137.01 -63 202.02 -63 269 C-42.21 269 -21.42 269 0 269 C0 203.99 0 138.98 0 72 C-20.79 72 -41.58 72 -63 72 Z M1 271 C1 293.44 1 315.88 1 339 C68.32 339 135.64 339 205 339 C205 316.56 205 294.12 205 271 C137.68 271 70.36 271 1 271 Z " fill="#8A8A8A" transform="translate(586,349)"/>
<path d="M0 0 C0.33 0 0.66 0 1 0 C1 23.1 1 46.2 1 70 C22.01746879 69.96038712 22.01746879 69.96038712 43.03491211 69.90991211 C45.65738891 69.90699325 48.27986616 69.90444462 50.90234375 69.90234375 C51.93096275 69.89842369 51.93096275 69.89842369 52.98036194 69.89442444 C54.99072139 69.88714366 57.00110198 69.8866616 59.01147461 69.88647461 C60.14620712 69.884254 61.28093964 69.88203339 62.45005798 69.87974548 C65 70 65 70 66 71 C66.09429342 73.17805719 66.11742538 75.3592128 66.11352539 77.53930664 C66.11367142 78.22220261 66.11381744 78.90509857 66.1139679 79.60868835 C66.11326876 81.87587614 66.1054764 84.14298274 66.09765625 86.41015625 C66.09579207 87.97814387 66.09436817 89.54613207 66.09336853 91.11412048 C66.08954334 95.24876503 66.07971306 99.38337466 66.06866455 103.51800537 C66.05665582 108.47475717 66.05204819 113.43152061 66.04621124 118.38828278 C66.03650129 125.92554616 66.01734477 133.46273288 66 141 C44.55 141 23.1 141 1 141 C1 163.77 1 186.54 1 210 C0.67 210 0.34 210 0 210 C0 187.56 0 165.12 0 142 C-40.92 142 -81.84 142 -124 142 C-124.020625 130.305625 -124.04125 118.61125 -124.0625 106.5625 C-124.071604 102.86490479 -124.08070801 99.16730957 -124.09008789 95.35766602 C-124.09460449 90.85534668 -124.09460449 90.85534668 -124.09544373 88.75010681 C-124.09698306 87.27431436 -124.10050776 85.7985232 -124.10557556 84.32273865 C-124.1128548 82.09217125 -124.11390736 79.86168095 -124.11352539 77.63110352 C-124.115746 76.37201675 -124.11796661 75.11292999 -124.12025452 73.81568909 C-124 71 -124 71 -123 70 C-121.40577964 69.90402796 -119.8072955 69.87812076 -118.21018982 69.87974548 C-117.17387421 69.87837082 -116.13755859 69.87699615 -115.06983948 69.87557983 C-113.35002113 69.88097275 -113.35002113 69.88097275 -111.59545898 69.88647461 C-110.39562378 69.88632858 -109.19578857 69.88618256 -107.95959473 69.8860321 C-104.66014809 69.88661106 -101.36076336 69.89164022 -98.0613277 69.89860606 C-94.61665703 69.90484027 -91.17198562 69.90544345 -87.72731018 69.90663147 C-81.2001727 69.90974459 -74.67305189 69.91795771 -68.14592177 69.92798096 C-59.98856042 69.9402368 -51.83119638 69.94572471 -43.67382812 69.95117188 C-29.11587242 69.96092314 -14.55795311 69.9809534 0 70 C0 46.9 0 23.8 0 0 Z M1 71 C1 93.77 1 116.54 1 140 C22.12 140 43.24 140 65 140 C65 117.23 65 94.46 65 71 C43.88 71 22.76 71 1 71 Z M-123 72 C-123 94.44 -123 116.88 -123 140 C-82.41 140 -41.82 140 0 140 C0.020625 128.965625 0.04125 117.93125 0.0625 106.5625 C0.071604 103.07373291 0.08070801 99.58496582 0.09008789 95.99047852 C0.09300673 93.24495482 0.09555536 90.49943069 0.09765625 87.75390625 C0.10026962 87.0358934 0.102883 86.31788055 0.10557556 85.57810974 C0.11285571 83.47335481 0.11390733 81.36868158 0.11352539 79.26391602 C0.115746 78.07588882 0.11796661 76.88786163 0.12025452 75.66383362 C0.30362595 73.07879307 0.30362595 73.07879307 -1 72 C-2.58154848 71.90405775 -4.16739125 71.8781204 -5.75184631 71.87974548 C-6.77974777 71.87837082 -7.80764923 71.87699615 -8.86669922 71.87557983 C-10.57249146 71.88097275 -10.57249146 71.88097275 -12.31274414 71.88647461 C-13.50282578 71.88632858 -14.69290741 71.88618256 -15.91905212 71.8860321 C-19.19163274 71.88661106 -22.46417107 71.89164019 -25.73674321 71.89860606 C-29.15338665 71.90484033 -32.57003083 71.90544346 -35.98667908 71.90663147 C-42.46069267 71.90974457 -48.93468946 71.91795767 -55.40869564 71.92798096 C-63.49967408 71.94023686 -71.59065523 71.94572472 -79.68164062 71.95117188 C-94.12110686 71.9609231 -108.56053639 71.98095337 -123 72 Z " fill="#888787" transform="translate(423,350)"/>
<path d="M0 0 C0.66 0 1.32 0 2 0 C1.67 18.48 1.34 36.96 1 56 C36.64 56 72.28 56 109 56 C109 38.18 109 20.36 109 2 C74.02 2 39.04 2 3 2 C3.33 1.34 3.66 0.68 4 0 C39.31 0 74.62 0 111 0 C110.67 18.81 110.34 37.62 110 57 C73.7 57 37.4 57 0 57 C0 38.19 0 19.38 0 0 Z " fill="#0E0E0E" transform="translate(306,427)"/>
<path d="M0 0 C1.1821995 0.00138269 1.1821995 0.00138269 2.38828182 0.00279331 C3.28997097 0.00141865 4.19166012 0.00004398 5.12067318 -0.00137234 C6.6160738 0.00402058 6.6160738 0.00402058 8.14168453 0.00952244 C9.18546261 0.00937641 10.22924068 0.00923038 11.3046484 0.00907993 C14.77305295 0.00977956 18.24140454 0.0175743 21.70979977 0.02539158 C24.1073367 0.02725558 26.50487401 0.02867957 28.90241146 0.0296793 C35.22684936 0.03350589 41.55126446 0.04333737 47.87569332 0.05438328 C54.32364754 0.06459438 60.77160543 0.06917627 67.21956539 0.0742197 C79.88168452 0.08495951 92.54378781 0.10184664 105.20589352 0.12304783 C105.20589352 0.78304783 105.20589352 1.44304783 105.20589352 2.12304783 C70.55589352 2.12304783 35.90589352 2.12304783 0.20589352 2.12304783 C0.20589352 23.24304783 0.20589352 44.36304783 0.20589352 66.12304783 C-0.12410648 66.12304783 -0.45410648 66.12304783 -0.79410648 66.12304783 C-1.71229029 57.12840214 -1.95061032 48.22321014 -1.91910648 39.18554783 C-1.91822025 38.51538639 -1.91733402 37.84522495 -1.91642094 37.15475559 C-1.89834131 25.45741105 -1.52298969 13.79819493 -0.79410648 2.12304783 C-1.45410648 1.79304783 -2.11410648 1.46304783 -2.79410648 1.12304783 C-1.79410648 0.12304783 -1.79410648 0.12304783 0 0 Z " fill="#0B0B0B" transform="translate(594.7941064834595,426.8769521713257)"/>
</svg>
